#N canvas 905 249 755 609 10;
#X obj 150 525 dac~ 1;
#X obj 150 497 *~;
#X floatatom 156 115 0 0 0 0 - - -;
#X obj 174 469 line~;
#X msg 174 413 0.1 100;
#X msg 193 438 0 100;
#X text 245 408 on;
#X text 242 437 off;
#X text 231 466 envelope;
#X text 231 479 generator;
#X text 158 388 amplitude controls:;
#X text 148 549 audio output;
#X obj 156 144 osc~ 1000;
#X floatatom 370 138 5 0 0 0 - - -, f 5;
#X obj 248 259 delayfbck~ 0.66;
#X connect 1 0 0 0;
#X connect 2 0 12 0;
#X connect 3 0 1 1;
#X connect 4 0 3 0;
#X connect 5 0 3 0;
#X connect 12 0 14 0;
#X connect 14 0 1 0;
