#N canvas 132 62 679 614 10;
#X obj 68 63 osc/unpackOSC;
#X obj 1 150 print cmd;
#X obj 68 86 osc/routeOSC /delayfbck;
#X obj 68 40 mrpeach/net/udpreceive 9001;
#X obj 68 168 delayfbck~ 2;
#X text 80 573 audio output;
#X obj 92 432 *~;
#X obj 110 409 line~;
#X msg 149 373 0 100;
#X text 201 339 on;
#X text 198 375 off;
#X text 187 404 envelope;
#X text 187 417 generator;
#X text 201 339 on;
#X text 198 375 off;
#X text 187 404 envelope;
#X text 187 417 generator;
#X text 116 283 amplitude controls:;
#X obj 133 547 dac~ 2;
#X obj 80 547 dac~ 1;
#X msg 145 340 0.1 100;
#X obj 145 313 loadbang;
#X obj 68 109 osc/routeOSC /del1 /del2 /del3;
#X obj 247 170 delayfbck~ 2;
#X obj 159 170 delayfbck~ 2;
#X obj 254 473 cyclone/atan~;
#X obj 259 449 *~ 6;
#X floatatom 281 422 5 0 100 0 - - -, f 5;
#X obj 97 208 *~ 0;
#X obj 248 210 *~ 0;
#X obj 267 511 *~ 0.1;
#X floatatom 374 481 5 0 20 0 - - -, f 5;
#X msg 281 387 1;
#X obj 377 430 loadbang;
#X msg 377 453 1;
#X obj 281 356 loadbang;
#X connect 0 0 2 0;
#X connect 2 0 22 0;
#X connect 2 0 1 0;
#X connect 3 0 0 0;
#X connect 4 0 6 0;
#X connect 4 0 28 0;
#X connect 6 0 26 0;
#X connect 7 0 6 1;
#X connect 8 0 7 0;
#X connect 20 0 7 0;
#X connect 21 0 20 0;
#X connect 22 0 4 0;
#X connect 22 1 24 0;
#X connect 22 2 23 0;
#X connect 23 0 6 0;
#X connect 24 0 6 0;
#X connect 24 0 29 0;
#X connect 25 0 30 0;
#X connect 26 0 25 0;
#X connect 27 0 26 1;
#X connect 28 0 24 1;
#X connect 29 0 23 1;
#X connect 30 0 19 0;
#X connect 30 0 18 0;
#X connect 31 0 30 1;
#X connect 32 0 27 0;
#X connect 33 0 34 0;
#X connect 34 0 31 0;
#X connect 35 0 32 0;
